<svg xmlns="http://www.w3.org/2000/svg" width="256" height="256" viewBox="0 0 100 100"><rect width="100" height="100" rx="20" fill="#f14c00"/><path fill="#fff" d="M31.1 85H26q-1.1 0-1.7-.65-.6-.65-.6-1.65V17.4q0-1.1.6-1.75.6-.65 1.7-.65h24.4q11.3 0 17.9 5.3 6.6 5.3 6.6 15.7 0 7.7-3.85 12.55Q67.2 53.4 60.6 55.3L76 81.9q.3.6.3 1.1 0 .8-.65 1.4-.65.6-1.45.6h-4.8q-1.7 0-2.5-.9t-1.4-1.8L51 56.9H33.5v25.8q0 1-.65 1.65-.65.65-1.75.65Zm2.4-61.6v25H50q7.5 0 11.2-3.15 3.7-3.15 3.7-9.35 0-6.1-3.65-9.3Q57.6 23.4 50 23.4H33.5Z"/></svg>